<?xml version="1.0" encoding="UTF-8" standalone="no"?>
<svg
   width="425.79944"
   zoomAndPan="magnify"
   viewBox="0 0 319.34958 155.74218"
   height="207.65625"
   preserveAspectRatio="xMidYMid meet"
   version="1.0"
   id="svg112"
   sodipodi:docname="light_logo.svg"
   inkscape:version="1.1 (c68e22c387, 2021-05-23)"
   xmlns:inkscape="http://www.inkscape.org/namespaces/inkscape"
   xmlns:sodipodi="http://sodipodi.sourceforge.net/DTD/sodipodi-0.dtd"
   xmlns="http://www.w3.org/2000/svg"
   xmlns:svg="http://www.w3.org/2000/svg">
  <sodipodi:namedview
     id="namedview114"
     pagecolor="#ffffff"
     bordercolor="#666666"
     borderopacity="1.0"
     inkscape:pageshadow="2"
     inkscape:pageopacity="0.0"
     inkscape:pagecheckerboard="0"
     showgrid="false"
     fit-margin-top="10"
     fit-margin-right="10"
     fit-margin-bottom="10"
     fit-margin-left="10"
     inkscape:zoom="1.746"
     inkscape:cx="208.76289"
     inkscape:cy="103.95189"
     inkscape:window-width="2560"
     inkscape:window-height="1411"
     inkscape:window-x="-9"
     inkscape:window-y="-9"
     inkscape:window-maximized="1"
     inkscape:current-layer="svg112" />
  <defs
     id="defs4">
    <g
       id="g2" />
  </defs>
  <g
     fill="#ecf0f3"
     fill-opacity="1"
     id="g12"
     transform="translate(-31.128906,-109.69922)">
    <g
       transform="translate(123.28641,212.58215)"
       id="g10">
      <g
         id="g8">
        <path
           d="M 107.84375,-13.515625 H 63.953125 L 63.09375,-63.34375 h 47.21875 z m -60.375,-36.3125 -2.96875,36.6875 h -8.421875 l -2.859375,-36.6875 H 20.953125 V -52.6875 H 32.96875 L 32.109375,-63.46875 H 48.46875 l -0.875,10.78125 h 9.546875 v 2.859375 z M 69.78125,-29.5 69.296875,-16.359375 H 87.875 L 86.765625,-29.5 Z M 86.640625,-32.359375 85.65625,-45 h -15.5 l -0.375,12.640625 z m -16.109375,-28.125 -0.25,12.640625 h 15.125 l -1,-12.640625 z m -45.25,17.46875 h 5.453125 v 6.328125 c 0,4.375 -0.683594,8.199219 -2.046875,11.46875 -1.355469,3.261719 -2.820312,5.964844 -4.390625,8.109375 -1.824219,2.398437 -3.890625,4.464844 -6.203125,6.203125 l -4.578125,-2.234375 c 2.226563,-1.570313 4.207031,-3.515625 5.9375,-5.828125 1.40625,-1.894531 2.726563,-4.289062 3.96875,-7.1875 1.238281,-2.894531 1.859375,-6.40625 1.859375,-10.53125 z m 27.15625,1.25 6.8125,5.6875 L 53.546875,-30 47.59375,-36.4375 Z m 0,0"
           id="path6" />
      </g>
    </g>
  </g>
  <g
     fill="#ecf0f3"
     fill-opacity="1"
     id="g18"
     transform="translate(-31.128906,-109.69922)">
    <g
       transform="translate(222.44447,212.58215)"
       id="g16">
      <g
         id="g14" />
    </g>
  </g>
  <g
     fill="#ecf0f3"
     fill-opacity="1"
     id="g26"
     transform="translate(-31.128906,-109.69922)">
    <g
       transform="translate(241.65532,212.58215)"
       id="g24">
      <g
         id="g22">
        <path
           d="m 95.6875,-13.875 v 2.84375 H 50.328125 V -13.875 h 17.46875 l -3.59375,-17.484375 H 55.65625 c -2.148438,2.3125 -4.625,4.445313 -7.4375,6.390625 -2.8125,1.9375 -6.078125,3.734375 -9.796875,5.390625 L 28.265625,-32.84375 c 1.238281,-0.582031 2.640625,-1.429688 4.203125,-2.546875 1.570312,-1.113281 3.179688,-2.429687 4.828125,-3.953125 1.65625,-1.53125 3.269531,-3.328125 4.84375,-5.390625 1.570313,-2.070313 2.9375,-4.304687 4.09375,-6.703125 H 33.09375 v -2.984375 h 14.375 c 1.238281,-2.882813 2.023438,-5.859375 2.359375,-8.921875 H 70.40625 c -0.335938,1.574219 -0.6875,3.105469 -1.0625,4.59375 -0.367188,1.492188 -0.796875,2.933594 -1.296875,4.328125 H 92.96875 V -51.4375 H 67.1875 c -1,3.136719 -2.246094,6.132812 -3.734375,8.984375 -1.480469,2.855469 -3.25,5.5625 -5.3125,8.125 H 93.09375 v 2.96875 H 81.9375 L 78.21875,-13.875 Z m 0,0"
           id="path20" />
      </g>
    </g>
  </g>
  <path
     fill="#ecf0f3"
     d="m 60.898438,100.6875 c -10.820313,0 -19.585938,-8.769529 -19.585938,-19.589849 0,-10.8164 8.765625,-19.58203 19.585938,-19.58203 10.820316,0 19.585936,8.76563 19.585936,19.58203 0,10.82032 -8.76562,19.589849 -19.585936,19.589849 z m 0,-42.804689 c -12.824219,0 -23.222656,10.39453 -23.222656,23.21484 0,12.82422 10.398437,23.218749 23.222656,23.218749 12.824216,0 23.222656,-10.394529 23.222656,-23.218749 0,-12.82031 -10.39844,-23.21484 -23.222656,-23.21484"
     fill-opacity="1"
     fill-rule="nonzero"
     id="path28" />
  <path
     fill="#ecf0f3"
     d="m 60.898438,110.78515 c -16.394532,0 -29.6875,-13.289059 -29.6875,-29.687499 0,-16.39453 13.292968,-29.68359 29.6875,-29.68359 16.398436,0 29.687496,13.28906 29.687496,29.68359 0,16.39844 -13.28906,29.687499 -29.687496,29.687499 z M 35.128906,29.218751 v -18.90625 h 25.179688 v 18.90625 z m 48.124998,26.39062 v -5.11328 c 0,-6.1289 -4.97656,-11.10937 -11.10547,-11.10937 H 58.363282 v -7.12891 h 2.710937 c 1.984375,0 3.582031,-1.59766 3.582031,-3.57812 v -17.59766 c 0,-1.9765601 -1.597656,-3.5820301 -3.582031,-3.5820301 H 34.773438 c -1.976563,0 -3.578125,1.60547 -3.578125,3.5820301 v 17.59766 c 0,1.98046 1.601562,3.57812 3.578125,3.57812 h 2.71875 v 7.12891 H 22.886719 c -6.132813,0 -11.109375,4.98047 -11.109375,11.10937 v 4.63281 c -2.3632811,0 -4.2773441,1.91407 -4.2773441,4.27735 v 19.21094 c 0,2.36328 1.914063,4.27734 4.2773441,4.27734 v 3.70312 c -2.3632811,0 -4.2773441,1.91797 -4.2773441,4.28516 v 19.203129 c 0,2.36718 1.914063,4.28515 4.2773441,4.28515 v 22.76172 c 0,6.14063 4.976562,11.10938 11.109375,11.10938 h 49.261715 c 6.12891,0 11.10547,-4.96875 11.10547,-11.10938 v -30.36719 c 6.88282,-6.48437 11.22266,-15.738279 11.44141,-25.570309 0.23047,-10.19141 -4.33594,-19.25781 -11.44141,-25.58594"
     fill-opacity="1"
     fill-rule="nonzero"
     id="path30" />
  <g
     fill="#ecf0f3"
     fill-opacity="1"
     id="g38"
     transform="translate(-31.128906,-109.69922)">
    <g
       transform="translate(144.75231,244.64787)"
       id="g36">
      <g
         id="g34">
        <path
           d="M 16.734375,1.855469 17.0625,0.238281 H 9.433594 c -1.3125,0 -2.367188,-0.1835935 -3.167969,-0.53125 2.601563,-1.21875 4.042969,-2.273437 4.824219,-3.53125 C 12.21875,-2.695312 14.3125,-0.710938 15.023438,0 l 1.273437,-1.382812 c -0.871094,-0.875 -3.605469,-3.261719 -4.550781,-4.152344 l 0.05469,-0.253906 h 4.769531 v -1.621094 h -4.644531 c 0,-0.148438 0.01953,-0.292969 0.01953,-0.4375 v -2.09375 h 4.371094 v -1.605469 h -2.859375 l 1.65625,-2.566406 -1.511719,-0.875 c -0.4375,0.929687 -1.347656,2.421875 -2.074218,3.441406 H 9.085938 l 1.148437,-0.707031 c -0.417969,-0.566406 -1.511719,-2.113282 -1.894531,-2.734375 l -1.328125,0.894531 c 0.382812,0.582031 1.328125,1.894531 1.730469,2.546875 h -2.40625 v 1.605469 h 3.769531 v 1.964844 c 0,0.199218 0,0.363281 -0.01563,0.566406 h -4.5 v 1.621094 H 9.90625 C 9.523438,-4.242188 8.375,-3.113281 5.191406,-1.765625 l 0.925782,1.417969 C 5.5,-0.65625 5.027344,-1.09375 4.699219,-1.621094 V -8.25 H 0.964844 v 1.621094 h 2.039062 v 5.007812 L 0.636719,0.472656 1.640625,2.183594 C 2.222656,1.511719 3.222656,0.4375 3.804688,-0.0898438 4.972656,1.238281 6.519531,1.875 9.304688,1.875 Z M 5.335938,-10.796875 c -0.582032,-0.964844 -1.765626,-2.714844 -2.292969,-3.570313 l -1.457031,1 c 0.582031,0.875 1.78125,2.734376 2.273437,3.605469 z m 0,0"
           id="path32" />
      </g>
    </g>
  </g>
  <g
     fill="#ecf0f3"
     fill-opacity="1"
     id="g46"
     transform="translate(-31.128906,-109.69922)">
    <g
       transform="translate(170.25475,244.64787)"
       id="g44">
      <g
         id="g42">
        <path
           d="M 17.464844,0.636719 C 14.457031,-0.527344 12.875,-2.222656 12.054688,-4.625 h 5.0625 v -1.675781 h -1.476563 v -5.515625 H 11.78125 v -2.804688 h -1.675781 c -0.01563,0.382813 -0.01563,1.492188 -0.01563,2.804688 H 7.175781 v 1.726562 h 2.914063 v 3.789063 H 5.882812 V -4.625 H 9.871094 C 9.304688,-2.441406 7.757812,-0.820312 4.863281,0.691406 v -10.851562 c 0.492188,0.875 1.109375,2.039062 1.402344,2.675781 l 1.402344,-0.910156 -1.878907,-3.386719 -0.925781,0.636719 v -3.476563 H 3.222656 V 2.113281 h 1.640625 v -0.875 L 5.5,2.3125 c 2.984375,-1.65625 4.660156,-3.222656 5.535156,-5.226562 1.074219,2.277343 2.824219,3.898437 5.519532,5.117187 z M 1.328125,-11.582031 c -0.089844,2.039062 -0.34375,4.933593 -0.636719,6.628906 l 1.492188,0.144531 C 2.421875,-6.375 2.695312,-9.652344 2.785156,-11.507812 Z m 12.601563,1.492187 v 3.789063 h -2.203126 c 0,-0.089844 0.01953,-0.164063 0.01953,-0.292969 0,-0.5625 0.01563,-1.984375 0.01563,-3.496094 z m 0,0"
           id="path40" />
      </g>
    </g>
  </g>
  <g
     fill="#ecf0f3"
     fill-opacity="1"
     id="g54"
     transform="translate(-31.128906,-109.69922)">
    <g
       transform="translate(195.75719,244.64787)"
       id="g52">
      <g
         id="g50">
        <path
           d="m 12.875,-2.824219 0.308594,1.605469 0.929687,0.070312 c 1.546875,0.128907 2.113281,-0.492187 2.257813,-1.945312 C 16.425781,-3.550781 16.5,-5.917969 16.5,-6.300781 h -4.738281 v -1.53125 h 4.136719 v -4.585938 h -2.386719 c 0.417969,-0.636719 0.800781,-1.3125 1.074219,-1.875 L 13,-14.804688 c -0.289062,0.582032 -0.78125,1.53125 -1.273438,2.386719 H 9.761719 l 0.308593,-0.109375 C 9.6875,-13.3125 9.105469,-14.332031 8.777344,-14.859375 l -1.476563,0.621094 1.019531,1.820312 H 6.046875 v 1.546875 h 4.058594 v 1.566406 H 6.082031 L 5.570312,-4.808594 H 9.214844 C 8.140625,-3.734375 6.71875,-2.75 5.042969,-1.949219 l 0.929687,1.402344 c 1.601563,-0.820313 2.988282,-1.894531 4.132813,-3.058594 v 3.3125 h 1.65625 V -4.808594 H 14.75 c -0.01953,0.367188 -0.05469,1.039063 -0.05469,1.257813 0,0.636719 -0.21875,1 -1.148437,0.855469 z m 4.042969,4.519531 0.273437,-1.496093 H 8.777344 c -2.148438,0 -3.1875,-0.382813 -4.261719,-2.039063 V -8.375 H 1.074219 v 1.601562 h 1.804687 v 4.933594 L 0.820312,0.308594 1.457031,1.984375 C 2.039062,1.292969 3.058594,0.128906 3.640625,-0.492188 4.898438,1.148438 6.171875,1.710938 8.523438,1.710938 Z M 5.246094,-10.925781 c -0.640625,-1.039063 -1.695313,-2.675781 -2.222656,-3.441407 l -1.402344,0.910157 c 0.527344,0.820312 1.546875,2.550781 2.128906,3.515625 z m 2.402344,3.09375 h 2.457031 v 1.53125 h -2.65625 z m 6.589843,-3.039063 v 1.566406 h -2.476562 v -1.566406 z m 0,0"
           id="path48" />
      </g>
    </g>
  </g>
  <g
     fill="#ecf0f3"
     fill-opacity="1"
     id="g62"
     transform="translate(-31.128906,-109.69922)">
    <g
       transform="translate(221.25964,244.64787)"
       id="g60">
      <g
         id="g58">
        <path
           d="m 7.464844,-7.847656 v 3.3125 h 3.296875 v -3.3125 z m 0,0"
           id="path56" />
      </g>
    </g>
  </g>
  <g
     fill="#ecf0f3"
     fill-opacity="1"
     id="g70"
     transform="translate(-31.128906,-109.69922)">
    <g
       transform="translate(246.76208,244.64787)"
       id="g68">
      <g
         id="g66">
        <path
           d="M 0.65625,-0.582031 V 0.726562 H 9.503906 V -0.890625 H 3.332031 L 9.285156,-7.976562 V -9.304688 H 0.964844 v 1.636719 h 5.664062 z m 0,0"
           id="path64" />
      </g>
    </g>
  </g>
  <g
     fill="#ecf0f3"
     fill-opacity="1"
     id="g78"
     transform="translate(-31.128906,-109.69922)">
    <g
       transform="translate(264.2205,244.64787)"
       id="g76">
      <g
         id="g74">
        <path
           d="m 0.183594,-9.160156 v 1.621094 h 1.726562 v 6.464843 c 0,1.53125 1.023438,2.019531 2.386719,2.019531 0.65625,0 1.273437,-0.054687 1.859375,-0.253906 v -1.601562 c -0.273438,0.128906 -0.621094,0.199218 -0.964844,0.199218 -0.785156,0 -1.292968,-0.179687 -1.292968,-0.964843 V -7.539062 H 6.191406 V -9.160156 H 3.898438 v -2.75 H 1.910156 v 2.75 z m 0,0"
           id="path72" />
      </g>
    </g>
  </g>
  <g
     fill="#ecf0f3"
     fill-opacity="1"
     id="g86"
     transform="translate(-31.128906,-109.69922)">
    <g
       transform="translate(278.07549,244.64787)"
       id="g84">
      <g
         id="g82">
        <path
           d="M 0.109375,-9.304688 4.28125,0.527344 3.660156,2.128906 c -0.199218,0.566406 -0.726562,0.75 -1.257812,0.75 -0.289063,0 -0.597656,-0.039062 -0.835938,-0.109375 v 1.710938 c 0.507813,0.125 0.875,0.125 1.367188,0.125 0.835937,0 1.78125,-0.234375 2.3125,-1.492188 L 10.234375,-9.304688 H 8.101562 L 5.246094,-1.949219 2.238281,-9.304688 Z m 0,0"
           id="path80" />
      </g>
    </g>
  </g>
  <g
     fill="#ecf0f3"
     fill-opacity="1"
     id="g94"
     transform="translate(-31.128906,-109.69922)">
    <g
       transform="translate(295.71589,244.64787)"
       id="g92">
      <g
         id="g90">
        <path
           d="m 0.820312,-1.546875 c 0,1.785156 1.65625,2.53125 3.257813,2.53125 1.476563,0 2.824219,-0.582031 3.714844,-1.457031 0,0.054687 0.09375,0.617187 0.128906,0.65625 0.199219,0.488281 0.875,0.691406 1.4375,0.691406 0.417969,0 0.910156,-0.039062 1.367187,-0.164062 V -0.566406 C 9.941406,-0.472656 9.6875,-0.601562 9.6875,-1.09375 v -5.132812 c 0,-2.058594 -1.367188,-3.351563 -4.152344,-3.351563 -2.257812,0 -3.785156,1.109375 -4.425781,2.859375 l 1.839844,0.253906 c 0.511719,-1.148437 1.492187,-1.476562 2.496093,-1.476562 1.636719,0 2.257813,0.804687 2.257813,1.675781 v 0.476563 c -4.371094,0.527343 -6.882813,1.671874 -6.882813,4.242187 z m 2.003907,-0.238281 c 0,-1.511719 2.3125,-2.074219 4.878906,-2.367188 0,0.417969 -0.019531,1.839844 -0.019531,2.277344 -0.855469,0.726562 -1.929688,1.238281 -3.167969,1.238281 -1.09375,0 -1.691406,-0.347656 -1.691406,-1.148437 z m 0,0"
           id="path88" />
      </g>
    </g>
  </g>
  <g
     fill="#ecf0f3"
     fill-opacity="1"
     id="g102"
     transform="translate(-31.128906,-109.69922)">
    <g
       transform="translate(314.12067,244.64787)"
       id="g100">
      <g
         id="g98">
        <path
           d="M 1.183594,-9.304688 V 0.726562 H 3.1875 V -6.71875 c 0.800781,-0.820312 1.675781,-1.222656 2.621094,-1.222656 1.367187,0 2.167968,0.859375 2.167968,2.371094 v 6.296874 h 2.003907 v -6.679687 c 0,-2.351563 -1.167969,-3.625 -3.550781,-3.625 -1.167969,0 -2.3125,0.5625 -3.242188,1.582031 v -1.308594 z m 0,0"
           id="path96" />
      </g>
    </g>
  </g>
  <g
     fill="#ecf0f3"
     fill-opacity="1"
     id="g110"
     transform="translate(-31.128906,-109.69922)">
    <g
       transform="translate(332.58003,244.64787)"
       id="g108">
      <g
         id="g106">
        <path
           d="m 0.875,-4.316406 c 0,3.351562 1.984375,5.171875 4.40625,5.171875 1.019531,0 2.113281,-0.398438 3.132812,-1.421875 v 0.5468748 c 0,1.9843752 -1.128906,3.0078122 -2.949218,3.0078122 -1.09375,0 -2.058594,-0.382812 -2.550782,-1.386719 L 1.09375,1.910156 C 1.765625,3.75 3.441406,4.605469 5.390625,4.605469 c 3.660156,0 5.007813,-1.984375 5.007813,-4.84375 V -9.304688 H 8.414062 v 1.164063 c -1.019531,-1.09375 -2.039062,-1.4375 -3.207031,-1.4375 -2.382812,0 -4.332031,1.910156 -4.332031,5.261719 z m 4.769531,3.460937 c -1.765625,0 -2.765625,-1.492187 -2.765625,-3.460937 0,-2.113282 1.054688,-3.53125 2.765625,-3.53125 1.09375,0 2.039063,0.601562 2.769531,1.492187 v 4.117188 c -0.710937,0.78125 -1.695312,1.382812 -2.769531,1.382812 z m 0,0"
           id="path104" />
      </g>
    </g>
  </g>
</svg>
